<svg xmlns="http://www.w3.org/2000/svg" viewBox="0 0 1200 320" width="1200" height="320">
<style>.p{animation:p 3.2s ease-in-out infinite}@keyframes p{0%,100%{opacity:1}50%{opacity:.2}}.cur{animation:b 1s steps(1) infinite}@keyframes b{50%{opacity:0}}text{font-family:ui-monospace,'SF Mono','JetBrains Mono',Menlo,Consolas,monospace}</style>
<rect x="0.5" y="0.5" width="1199" height="319" rx="6" fill="#0D1117" stroke="#30363D"/>
<text x="40" y="58" font-size="16" fill="#8B949E">~/darguinbarbosa</text>
<text x="1160" y="58" font-size="14" fill="#8B949E" letter-spacing="3" text-anchor="end">COLOMBIA · OPEN TO REMOTE</text>
<rect x="620" y="96" width="12" height="12" rx="2" fill="#3D1A0E" fill-opacity="0.12"/><rect x="620" y="112" width="12" height="12" rx="2" fill="#3D1A0E" fill-opacity="0.12"/><rect x="620" y="128" width="12" height="12" rx="2" fill="#3D1A0E" fill-opacity="0.12"/><rect x="620" y="144" width="12" height="12" rx="2" fill="#3D1A0E" fill-opacity="0.12"/><rect x="620" y="160" width="12" height="12" rx="2" fill="#C24515" fill-opacity="0.12" class="p" style="animation-delay:-0.26s"/><rect x="620" y="176" width="12" height="12" rx="2" fill="#3D1A0E" fill-opacity="0.12"/><rect x="620" y="192" width="12" height="12" rx="2" fill="#3D1A0E" fill-opacity="0.12"/><rect x="636" y="96" width="12" height="12" rx="2" fill="#3D1A0E" fill-opacity="0.15"/><rect x="636" y="112" width="12" height="12" rx="2" fill="#3D1A0E" fill-opacity="0.15"/><rect x="636" y="128" width="12" height="12" rx="2" fill="#C24515" fill-opacity="0.15" class="p" style="animation-delay:-2.14s"/><rect x="636" y="144" width="12" height="12" rx="2" fill="#7A2E12" fill-opacity="0.15"/><rect x="636" y="160" width="12" height="12" rx="2" fill="#161B22" fill-opacity="0.15"/><rect x="636" y="176" width="12" height="12" rx="2" fill="#161B22" fill-opacity="0.15"/><rect x="636" y="192" width="12" height="12" rx="2" fill="#161B22" fill-opacity="0.15"/><rect x="652" y="96" width="12" height="12" rx="2" fill="#161B22" fill-opacity="0.17"/><rect x="652" y="112" width="12" height="12" rx="2" fill="#161B22" fill-opacity="0.17"/><rect x="652" y="128" width="12" height="12" rx="2" fill="#3D1A0E" fill-opacity="0.17"/><rect x="652" y="144" width="12" height="12" rx="2" fill="#161B22" fill-opacity="0.17"/><rect x="652" y="160" width="12" height="12" rx="2" fill="#3D1A0E" fill-opacity="0.17"/><rect x="652" y="176" width="12" height="12" rx="2" fill="#3D1A0E" fill-opacity="0.17"/><rect x="652" y="192" width="12" height="12" rx="2" fill="#161B22" fill-opacity="0.17"/><rect x="668" y="96" width="12" height="12" rx="2" fill="#C24515" fill-opacity="0.20"/><rect x="668" y="112" width="12" height="12" rx="2" fill="#7A2E12" fill-opacity="0.20"/><rect x="668" y="128" width="12" height="12" rx="2" fill="#161B22" fill-opacity="0.20"/><rect x="668" y="144" width="12" height="12" rx="2" fill="#7A2E12" fill-opacity="0.20"/><rect x="668" y="160" width="12" height="12" rx="2" fill="#161B22" fill-opacity="0.20"/><rect x="668" y="176" width="12" height="12" rx="2" fill="#161B22" fill-opacity="0.20"/><rect x="668" y="192" width="12" height="12" rx="2" fill="#7A2E12" fill-opacity="0.20"/><rect x="684" y="96" width="12" height="12" rx="2" fill="#FF5F1F" fill-opacity="0.23" class="p" style="animation-delay:-0.47s"/><rect x="684" y="112" width="12" height="12" rx="2" fill="#7A2E12" fill-opacity="0.23"/><rect x="684" y="128" width="12" height="12" rx="2" fill="#161B22" fill-opacity="0.23"/><rect x="684" y="144" width="12" height="12" rx="2" fill="#3D1A0E" fill-opacity="0.23"/><rect x="684" y="160" width="12" height="12" rx="2" fill="#3D1A0E" fill-opacity="0.23"/><rect x="684" y="176" width="12" height="12" rx="2" fill="#C24515" fill-opacity="0.23" class="p" style="animation-delay:-2.72s"/><rect x="684" y="192" width="12" height="12" rx="2" fill="#C24515" fill-opacity="0.23" class="p" style="animation-delay:-0.08s"/><rect x="700" y="96" width="12" height="12" rx="2" fill="#161B22" fill-opacity="0.25"/><rect x="700" y="112" width="12" height="12" rx="2" fill="#C24515" fill-opacity="0.25" class="p" style="animation-delay:-1.68s"/><rect x="700" y="128" width="12" height="12" rx="2" fill="#161B22" fill-opacity="0.25"/><rect x="700" y="144" width="12" height="12" rx="2" fill="#3D1A0E" fill-opacity="0.25"/><rect x="700" y="160" width="12" height="12" rx="2" fill="#7A2E12" fill-opacity="0.25"/><rect x="700" y="176" width="12" height="12" rx="2" fill="#161B22" fill-opacity="0.25"/><rect x="700" y="192" width="12" height="12" rx="2" fill="#7A2E12" fill-opacity="0.25"/><rect x="716" y="96" width="12" height="12" rx="2" fill="#161B22" fill-opacity="0.28"/><rect x="716" y="112" width="12" height="12" rx="2" fill="#3D1A0E" fill-opacity="0.28"/><rect x="716" y="128" width="12" height="12" rx="2" fill="#7A2E12" fill-opacity="0.28"/><rect x="716" y="144" width="12" height="12" rx="2" fill="#FF5F1F" fill-opacity="0.28" class="p" style="animation-delay:-1.49s"/><rect x="716" y="160" width="12" height="12" rx="2" fill="#161B22" fill-opacity="0.28"/><rect x="716" y="176" width="12" height="12" rx="2" fill="#161B22" fill-opacity="0.28"/><rect x="716" y="192" width="12" height="12" rx="2" fill="#7A2E12" fill-opacity="0.28"/><rect x="732" y="96" width="12" height="12" rx="2" fill="#161B22" fill-opacity="0.31"/><rect x="732" y="112" width="12" height="12" rx="2" fill="#7A2E12" fill-opacity="0.31"/><rect x="732" y="128" width="12" height="12" rx="2" fill="#161B22" fill-opacity="0.31"/><rect x="732" y="144" width="12" height="12" rx="2" fill="#3D1A0E" fill-opacity="0.31"/><rect x="732" y="160" width="12" height="12" rx="2" fill="#161B22" fill-opacity="0.31"/><rect x="732" y="176" width="12" height="12" rx="2" fill="#C24515" fill-opacity="0.31" class="p" style="animation-delay:-0.38s"/><rect x="732" y="192" width="12" height="12" rx="2" fill="#7A2E12" fill-opacity="0.31"/><rect x="748" y="96" width="12" height="12" rx="2" fill="#7A2E12" fill-opacity="0.33"/><rect x="748" y="112" width="12" height="12" rx="2" fill="#161B22" fill-opacity="0.33"/><rect x="748" y="128" width="12" height="12" rx="2" fill="#161B22" fill-opacity="0.33"/><rect x="748" y="144" width="12" height="12" rx="2" fill="#161B22" fill-opacity="0.33"/><rect x="748" y="160" width="12" height="12" rx="2" fill="#FF5F1F" fill-opacity="0.33"/><rect x="748" y="176" width="12" height="12" rx="2" fill="#7A2E12" fill-opacity="0.33"/><rect x="748" y="192" width="12" height="12" rx="2" fill="#161B22" fill-opacity="0.33"/><rect x="764" y="96" width="12" height="12" rx="2" fill="#FF5F1F" fill-opacity="0.36" class="p" style="animation-delay:-1.39s"/><rect x="764" y="112" width="12" height="12" rx="2" fill="#161B22" fill-opacity="0.36"/><rect x="764" y="128" width="12" height="12" rx="2" fill="#3D1A0E" fill-opacity="0.36"/><rect x="764" y="144" width="12" height="12" rx="2" fill="#161B22" fill-opacity="0.36"/><rect x="764" y="160" width="12" height="12" rx="2" fill="#C24515" fill-opacity="0.36" class="p" style="animation-delay:-1.31s"/><rect x="764" y="176" width="12" height="12" rx="2" fill="#161B22" fill-opacity="0.36"/><rect x="764" y="192" width="12" height="12" rx="2" fill="#161B22" fill-opacity="0.36"/><rect x="780" y="96" width="12" height="12" rx="2" fill="#7A2E12" fill-opacity="0.39"/><rect x="780" y="112" width="12" height="12" rx="2" fill="#3D1A0E" fill-opacity="0.39"/><rect x="780" y="128" width="12" height="12" rx="2" fill="#3D1A0E" fill-opacity="0.39"/><rect x="780" y="144" width="12" height="12" rx="2" fill="#161B22" fill-opacity="0.39"/><rect x="780" y="160" width="12" height="12" rx="2" fill="#3D1A0E" fill-opacity="0.39"/><rect x="780" y="176" width="12" height="12" rx="2" fill="#7A2E12" fill-opacity="0.39"/><rect x="780" y="192" width="12" height="12" rx="2" fill="#C24515" fill-opacity="0.39"/><rect x="796" y="96" width="12" height="12" rx="2" fill="#3D1A0E" fill-opacity="0.41"/><rect x="796" y="112" width="12" height="12" rx="2" fill="#3D1A0E" fill-opacity="0.41"/><rect x="796" y="128" width="12" height="12" rx="2" fill="#3D1A0E" fill-opacity="0.41"/><rect x="796" y="144" width="12" height="12" rx="2" fill="#3D1A0E" fill-opacity="0.41"/><rect x="796" y="160" width="12" height="12" rx="2" fill="#161B22" fill-opacity="0.41"/><rect x="796" y="176" width="12" height="12" rx="2" fill="#7A2E12" fill-opacity="0.41"/><rect x="796" y="192" width="12" height="12" rx="2" fill="#7A2E12" fill-opacity="0.41"/><rect x="812" y="96" width="12" height="12" rx="2" fill="#FF5F1F" fill-opacity="0.44"/><rect x="812" y="112" width="12" height="12" rx="2" fill="#161B22" fill-opacity="0.44"/><rect x="812" y="128" width="12" height="12" rx="2" fill="#161B22" fill-opacity="0.44"/><rect x="812" y="144" width="12" height="12" rx="2" fill="#7A2E12" fill-opacity="0.44"/><rect x="812" y="160" width="12" height="12" rx="2" fill="#FF5F1F" fill-opacity="0.44" class="p" style="animation-delay:-2.96s"/><rect x="812" y="176" width="12" height="12" rx="2" fill="#161B22" fill-opacity="0.44"/><rect x="812" y="192" width="12" height="12" rx="2" fill="#7A2E12" fill-opacity="0.44"/><rect x="828" y="96" width="12" height="12" rx="2" fill="#7A2E12" fill-opacity="0.47"/><rect x="828" y="112" width="12" height="12" rx="2" fill="#161B22" fill-opacity="0.47"/><rect x="828" y="128" width="12" height="12" rx="2" fill="#161B22" fill-opacity="0.47"/><rect x="828" y="144" width="12" height="12" rx="2" fill="#7A2E12" fill-opacity="0.47"/><rect x="828" y="160" width="12" height="12" rx="2" fill="#3D1A0E" fill-opacity="0.47"/><rect x="828" y="176" width="12" height="12" rx="2" fill="#7A2E12" fill-opacity="0.47"/><rect x="828" y="192" width="12" height="12" rx="2" fill="#161B22" fill-opacity="0.47"/><rect x="844" y="96" width="12" height="12" rx="2" fill="#7A2E12" fill-opacity="0.49"/><rect x="844" y="112" width="12" height="12" rx="2" fill="#161B22" fill-opacity="0.49"/><rect x="844" y="128" width="12" height="12" rx="2" fill="#161B22" fill-opacity="0.49"/><rect x="844" y="144" width="12" height="12" rx="2" fill="#3D1A0E" fill-opacity="0.49"/><rect x="844" y="160" width="12" height="12" rx="2" fill="#161B22" fill-opacity="0.49"/><rect x="844" y="176" width="12" height="12" rx="2" fill="#161B22" fill-opacity="0.49"/><rect x="844" y="192" width="12" height="12" rx="2" fill="#C24515" fill-opacity="0.49"/><rect x="860" y="96" width="12" height="12" rx="2" fill="#7A2E12" fill-opacity="0.52"/><rect x="860" y="112" width="12" height="12" rx="2" fill="#161B22" fill-opacity="0.52"/><rect x="860" y="128" width="12" height="12" rx="2" fill="#3D1A0E" fill-opacity="0.52"/><rect x="860" y="144" width="12" height="12" rx="2" fill="#C24515" fill-opacity="0.52" class="p" style="animation-delay:-2.24s"/><rect x="860" y="160" width="12" height="12" rx="2" fill="#7A2E12" fill-opacity="0.52"/><rect x="860" y="176" width="12" height="12" rx="2" fill="#161B22" fill-opacity="0.52"/><rect x="860" y="192" width="12" height="12" rx="2" fill="#3D1A0E" fill-opacity="0.52"/><rect x="876" y="96" width="12" height="12" rx="2" fill="#3D1A0E" fill-opacity="0.55"/><rect x="876" y="112" width="12" height="12" rx="2" fill="#161B22" fill-opacity="0.55"/><rect x="876" y="128" width="12" height="12" rx="2" fill="#C24515" fill-opacity="0.55" class="p" style="animation-delay:-0.27s"/><rect x="876" y="144" width="12" height="12" rx="2" fill="#FF5F1F" fill-opacity="0.55"/><rect x="876" y="160" width="12" height="12" rx="2" fill="#7A2E12" fill-opacity="0.55"/><rect x="876" y="176" width="12" height="12" rx="2" fill="#C24515" fill-opacity="0.55"/><rect x="876" y="192" width="12" height="12" rx="2" fill="#FF5F1F" fill-opacity="0.55" class="p" style="animation-delay:-0.54s"/><rect x="892" y="96" width="12" height="12" rx="2" fill="#3D1A0E" fill-opacity="0.57"/><rect x="892" y="112" width="12" height="12" rx="2" fill="#161B22" fill-opacity="0.57"/><rect x="892" y="128" width="12" height="12" rx="2" fill="#161B22" fill-opacity="0.57"/><rect x="892" y="144" width="12" height="12" rx="2" fill="#3D1A0E" fill-opacity="0.57"/><rect x="892" y="160" width="12" height="12" rx="2" fill="#161B22" fill-opacity="0.57"/><rect x="892" y="176" width="12" height="12" rx="2" fill="#161B22" fill-opacity="0.57"/><rect x="892" y="192" width="12" height="12" rx="2" fill="#3D1A0E" fill-opacity="0.57"/><rect x="908" y="96" width="12" height="12" rx="2" fill="#161B22" fill-opacity="0.60"/><rect x="908" y="112" width="12" height="12" rx="2" fill="#161B22" fill-opacity="0.60"/><rect x="908" y="128" width="12" height="12" rx="2" fill="#7A2E12" fill-opacity="0.60"/><rect x="908" y="144" width="12" height="12" rx="2" fill="#161B22" fill-opacity="0.60"/><rect x="908" y="160" width="12" height="12" rx="2" fill="#161B22" fill-opacity="0.60"/><rect x="908" y="176" width="12" height="12" rx="2" fill="#3D1A0E" fill-opacity="0.60"/><rect x="908" y="192" width="12" height="12" rx="2" fill="#161B22" fill-opacity="0.60"/><rect x="924" y="96" width="12" height="12" rx="2" fill="#FF5F1F" fill-opacity="0.63" class="p" style="animation-delay:-1.43s"/><rect x="924" y="112" width="12" height="12" rx="2" fill="#161B22" fill-opacity="0.63"/><rect x="924" y="128" width="12" height="12" rx="2" fill="#7A2E12" fill-opacity="0.63"/><rect x="924" y="144" width="12" height="12" rx="2" fill="#161B22" fill-opacity="0.63"/><rect x="924" y="160" width="12" height="12" rx="2" fill="#3D1A0E" fill-opacity="0.63"/><rect x="924" y="176" width="12" height="12" rx="2" fill="#7A2E12" fill-opacity="0.63"/><rect x="924" y="192" width="12" height="12" rx="2" fill="#161B22" fill-opacity="0.63"/><rect x="940" y="96" width="12" height="12" rx="2" fill="#161B22" fill-opacity="0.65"/><rect x="940" y="112" width="12" height="12" rx="2" fill="#161B22" fill-opacity="0.65"/><rect x="940" y="128" width="12" height="12" rx="2" fill="#C24515" fill-opacity="0.65" class="p" style="animation-delay:-2.61s"/><rect x="940" y="144" width="12" height="12" rx="2" fill="#161B22" fill-opacity="0.65"/><rect x="940" y="160" width="12" height="12" rx="2" fill="#7A2E12" fill-opacity="0.65"/><rect x="940" y="176" width="12" height="12" rx="2" fill="#C24515" fill-opacity="0.65"/><rect x="940" y="192" width="12" height="12" rx="2" fill="#C24515" fill-opacity="0.65" class="p" style="animation-delay:-0.28s"/><rect x="956" y="96" width="12" height="12" rx="2" fill="#7A2E12" fill-opacity="0.68"/><rect x="956" y="112" width="12" height="12" rx="2" fill="#161B22" fill-opacity="0.68"/><rect x="956" y="128" width="12" height="12" rx="2" fill="#161B22" fill-opacity="0.68"/><rect x="956" y="144" width="12" height="12" rx="2" fill="#161B22" fill-opacity="0.68"/><rect x="956" y="160" width="12" height="12" rx="2" fill="#161B22" fill-opacity="0.68"/><rect x="956" y="176" width="12" height="12" rx="2" fill="#C24515" fill-opacity="0.68"/><rect x="956" y="192" width="12" height="12" rx="2" fill="#7A2E12" fill-opacity="0.68"/><rect x="972" y="96" width="12" height="12" rx="2" fill="#3D1A0E" fill-opacity="0.71"/><rect x="972" y="112" width="12" height="12" rx="2" fill="#7A2E12" fill-opacity="0.71"/><rect x="972" y="128" width="12" height="12" rx="2" fill="#7A2E12" fill-opacity="0.71"/><rect x="972" y="144" width="12" height="12" rx="2" fill="#161B22" fill-opacity="0.71"/><rect x="972" y="160" width="12" height="12" rx="2" fill="#7A2E12" fill-opacity="0.71"/><rect x="972" y="176" width="12" height="12" rx="2" fill="#161B22" fill-opacity="0.71"/><rect x="972" y="192" width="12" height="12" rx="2" fill="#161B22" fill-opacity="0.71"/><rect x="988" y="96" width="12" height="12" rx="2" fill="#161B22" fill-opacity="0.73"/><rect x="988" y="112" width="12" height="12" rx="2" fill="#7A2E12" fill-opacity="0.73"/><rect x="988" y="128" width="12" height="12" rx="2" fill="#161B22" fill-opacity="0.73"/><rect x="988" y="144" width="12" height="12" rx="2" fill="#3D1A0E" fill-opacity="0.73"/><rect x="988" y="160" width="12" height="12" rx="2" fill="#FF5F1F" fill-opacity="0.73"/><rect x="988" y="176" width="12" height="12" rx="2" fill="#3D1A0E" fill-opacity="0.73"/><rect x="988" y="192" width="12" height="12" rx="2" fill="#C24515" fill-opacity="0.73" class="p" style="animation-delay:-1.69s"/><rect x="1004" y="96" width="12" height="12" rx="2" fill="#7A2E12" fill-opacity="0.76"/><rect x="1004" y="112" width="12" height="12" rx="2" fill="#161B22" fill-opacity="0.76"/><rect x="1004" y="128" width="12" height="12" rx="2" fill="#FF5F1F" fill-opacity="0.76" class="p" style="animation-delay:-2.80s"/><rect x="1004" y="144" width="12" height="12" rx="2" fill="#3D1A0E" fill-opacity="0.76"/><rect x="1004" y="160" width="12" height="12" rx="2" fill="#FF5F1F" fill-opacity="0.76"/><rect x="1004" y="176" width="12" height="12" rx="2" fill="#161B22" fill-opacity="0.76"/><rect x="1004" y="192" width="12" height="12" rx="2" fill="#3D1A0E" fill-opacity="0.76"/><rect x="1020" y="96" width="12" height="12" rx="2" fill="#3D1A0E" fill-opacity="0.79"/><rect x="1020" y="112" width="12" height="12" rx="2" fill="#161B22" fill-opacity="0.79"/><rect x="1020" y="128" width="12" height="12" rx="2" fill="#161B22" fill-opacity="0.79"/><rect x="1020" y="144" width="12" height="12" rx="2" fill="#161B22" fill-opacity="0.79"/><rect x="1020" y="160" width="12" height="12" rx="2" fill="#161B22" fill-opacity="0.79"/><rect x="1020" y="176" width="12" height="12" rx="2" fill="#FF5F1F" fill-opacity="0.79" class="p" style="animation-delay:-1.83s"/><rect x="1020" y="192" width="12" height="12" rx="2" fill="#161B22" fill-opacity="0.79"/><rect x="1036" y="96" width="12" height="12" rx="2" fill="#FF5F1F" fill-opacity="0.81" class="p" style="animation-delay:-2.68s"/><rect x="1036" y="112" width="12" height="12" rx="2" fill="#161B22" fill-opacity="0.81"/><rect x="1036" y="128" width="12" height="12" rx="2" fill="#161B22" fill-opacity="0.81"/><rect x="1036" y="144" width="12" height="12" rx="2" fill="#3D1A0E" fill-opacity="0.81"/><rect x="1036" y="160" width="12" height="12" rx="2" fill="#161B22" fill-opacity="0.81"/><rect x="1036" y="176" width="12" height="12" rx="2" fill="#161B22" fill-opacity="0.81"/><rect x="1036" y="192" width="12" height="12" rx="2" fill="#161B22" fill-opacity="0.81"/><rect x="1052" y="96" width="12" height="12" rx="2" fill="#161B22" fill-opacity="0.84"/><rect x="1052" y="112" width="12" height="12" rx="2" fill="#C24515" fill-opacity="0.84" class="p" style="animation-delay:-1.47s"/><rect x="1052" y="128" width="12" height="12" rx="2" fill="#FF5F1F" fill-opacity="0.84" class="p" style="animation-delay:-1.82s"/><rect x="1052" y="144" width="12" height="12" rx="2" fill="#3D1A0E" fill-opacity="0.84"/><rect x="1052" y="160" width="12" height="12" rx="2" fill="#161B22" fill-opacity="0.84"/><rect x="1052" y="176" width="12" height="12" rx="2" fill="#3D1A0E" fill-opacity="0.84"/><rect x="1052" y="192" width="12" height="12" rx="2" fill="#FF5F1F" fill-opacity="0.84" class="p" style="animation-delay:-1.52s"/><rect x="1068" y="96" width="12" height="12" rx="2" fill="#161B22" fill-opacity="0.87"/><rect x="1068" y="112" width="12" height="12" rx="2" fill="#161B22" fill-opacity="0.87"/><rect x="1068" y="128" width="12" height="12" rx="2" fill="#161B22" fill-opacity="0.87"/><rect x="1068" y="144" width="12" height="12" rx="2" fill="#7A2E12" fill-opacity="0.87"/><rect x="1068" y="160" width="12" height="12" rx="2" fill="#161B22" fill-opacity="0.87"/><rect x="1068" y="176" width="12" height="12" rx="2" fill="#161B22" fill-opacity="0.87"/><rect x="1068" y="192" width="12" height="12" rx="2" fill="#7A2E12" fill-opacity="0.87"/><rect x="1084" y="96" width="12" height="12" rx="2" fill="#161B22" fill-opacity="0.89"/><rect x="1084" y="112" width="12" height="12" rx="2" fill="#161B22" fill-opacity="0.89"/><rect x="1084" y="128" width="12" height="12" rx="2" fill="#3D1A0E" fill-opacity="0.89"/><rect x="1084" y="144" width="12" height="12" rx="2" fill="#C24515" fill-opacity="0.89"/><rect x="1084" y="160" width="12" height="12" rx="2" fill="#3D1A0E" fill-opacity="0.89"/><rect x="1084" y="176" width="12" height="12" rx="2" fill="#7A2E12" fill-opacity="0.89"/><rect x="1084" y="192" width="12" height="12" rx="2" fill="#161B22" fill-opacity="0.89"/><rect x="1100" y="96" width="12" height="12" rx="2" fill="#7A2E12" fill-opacity="0.92"/><rect x="1100" y="112" width="12" height="12" rx="2" fill="#FF5F1F" fill-opacity="0.92" class="p" style="animation-delay:-2.27s"/><rect x="1100" y="128" width="12" height="12" rx="2" fill="#161B22" fill-opacity="0.92"/><rect x="1100" y="144" width="12" height="12" rx="2" fill="#161B22" fill-opacity="0.92"/><rect x="1100" y="160" width="12" height="12" rx="2" fill="#3D1A0E" fill-opacity="0.92"/><rect x="1100" y="176" width="12" height="12" rx="2" fill="#7A2E12" fill-opacity="0.92"/><rect x="1100" y="192" width="12" height="12" rx="2" fill="#161B22" fill-opacity="0.92"/><rect x="1116" y="96" width="12" height="12" rx="2" fill="#FF5F1F" fill-opacity="0.95"/><rect x="1116" y="112" width="12" height="12" rx="2" fill="#161B22" fill-opacity="0.95"/><rect x="1116" y="128" width="12" height="12" rx="2" fill="#C24515" fill-opacity="0.95" class="p" style="animation-delay:-2.28s"/><rect x="1116" y="144" width="12" height="12" rx="2" fill="#3D1A0E" fill-opacity="0.95"/><rect x="1116" y="160" width="12" height="12" rx="2" fill="#C24515" fill-opacity="0.95"/><rect x="1116" y="176" width="12" height="12" rx="2" fill="#3D1A0E" fill-opacity="0.95"/><rect x="1116" y="192" width="12" height="12" rx="2" fill="#161B22" fill-opacity="0.95"/><rect x="1132" y="96" width="12" height="12" rx="2" fill="#161B22" fill-opacity="0.97"/><rect x="1132" y="112" width="12" height="12" rx="2" fill="#7A2E12" fill-opacity="0.97"/><rect x="1132" y="128" width="12" height="12" rx="2" fill="#7A2E12" fill-opacity="0.97"/><rect x="1132" y="144" width="12" height="12" rx="2" fill="#161B22" fill-opacity="0.97"/><rect x="1132" y="160" width="12" height="12" rx="2" fill="#7A2E12" fill-opacity="0.97"/><rect x="1132" y="176" width="12" height="12" rx="2" fill="#161B22" fill-opacity="0.97"/><rect x="1132" y="192" width="12" height="12" rx="2" fill="#3D1A0E" fill-opacity="0.97"/><rect x="1148" y="96" width="12" height="12" rx="2" fill="#7A2E12" fill-opacity="1.00"/><rect x="1148" y="112" width="12" height="12" rx="2" fill="#3D1A0E" fill-opacity="1.00"/><rect x="1148" y="128" width="12" height="12" rx="2" fill="#FF5F1F" fill-opacity="1.00"/><rect x="1148" y="144" width="12" height="12" rx="2" fill="#161B22" fill-opacity="1.00"/><rect x="1148" y="160" width="12" height="12" rx="2" fill="#161B22" fill-opacity="1.00"/><rect x="1148" y="176" width="12" height="12" rx="2" fill="#161B22" fill-opacity="1.00"/><rect x="1148" y="192" width="12" height="12" rx="2" fill="#161B22" fill-opacity="1.00"/>
<text x="38" y="152" font-size="72" font-weight="700" fill="#F0F6FC" letter-spacing="2">DARGUIN</text>
<text x="38" y="226" font-size="72" font-weight="700" fill="#FF5F1F" letter-spacing="2">BARBOSA</text>
<text x="40" y="274" font-size="18" fill="#C9D1D9"><tspan fill="#FF5F1F">&gt;</tspan> systems engineer · full stack developer<tspan class="cur" fill="#FF5F1F"> _</tspan></text>
<text x="1160" y="274" font-size="13" fill="#6E7681" letter-spacing="2" text-anchor="end">ANGULAR · JAVA · PYTHON · NODE · GCP · AWS</text>
</svg>